<svg xmlns="http://www.w3.org/2000/svg" xmlns:xlink="http://www.w3.org/1999/xlink" width="32" zoomAndPan="magnify" viewBox="0 0 375 374.999991" height="32" preserveAspectRatio="xMidYMid meet" version="1.0"><defs><clipPath id="1ac2c6abeb"><path d="M 130.976562 146 L 244.101562 146 L 244.101562 230.671875 L 130.976562 230.671875 Z M 130.976562 146 " clip-rule="nonzero"/></clipPath><clipPath id="2e639f9478"><path d="M 130.976562 89.671875 L 244.101562 89.671875 L 244.101562 174.492188 L 130.976562 174.492188 Z M 130.976562 89.671875 " clip-rule="nonzero"/></clipPath></defs><g clip-path="url(#1ac2c6abeb)"><path fill="#fafafa" d="M 201.695312 146.078125 L 130.976562 146.078125 L 159.246094 174.28125 L 201.695312 174.28125 C 207.972656 174.28125 213.289062 178.359375 215.132812 184.007812 C 215.917969 181.980469 216.351562 179.78125 216.351562 177.484375 C 216.351562 175.941406 216.15625 174.441406 215.792969 173.011719 C 218.316406 176.121094 219.832031 180.078125 219.832031 184.390625 C 219.832031 194.382812 211.710938 202.480469 201.695312 202.480469 L 130.976562 202.480469 L 159.246094 230.683594 L 201.695312 230.683594 C 225.117188 230.683594 244.101562 211.746094 244.101562 188.382812 C 244.101562 165.019531 225.117188 146.078125 201.695312 146.078125 " fill-opacity="1" fill-rule="nonzero"/></g><g clip-path="url(#2e639f9478)"><path fill="#fafafa" d="M 201.695312 89.675781 L 130.976562 89.675781 L 159.246094 117.875 L 201.695312 117.875 C 207.972656 117.875 213.289062 121.957031 215.132812 127.601562 C 215.917969 125.578125 216.351562 123.378906 216.351562 121.078125 C 216.351562 119.535156 216.15625 118.039062 215.792969 116.609375 C 218.316406 119.714844 219.832031 123.675781 219.832031 127.988281 C 219.832031 137.980469 211.710938 146.078125 201.695312 146.078125 L 130.976562 146.078125 L 159.246094 174.28125 L 201.695312 174.28125 C 225.117188 174.28125 244.101562 155.339844 244.101562 131.976562 C 244.101562 108.613281 225.117188 89.675781 201.695312 89.675781 " fill-opacity="1" fill-rule="nonzero"/></g></svg>